# Blender 4.0.2
# www.blender.org
mtllib whiteboard.mtl
o Cube
v 0.090000 1.995000 -3.040000
v 0.090000 -1.995000 -3.040000
v 0.090000 1.995000 3.040000
v 0.090000 -1.995000 3.040000
v -0.090000 2.100000 -3.200000
v -0.090000 -2.100000 -3.200000
v -0.090000 2.100000 3.200000
v -0.090000 -2.100000 3.200000
v 0.090000 2.100000 -3.200000
v 0.090000 -2.100000 -3.200000
v 0.090000 2.100000 3.200000
v 0.090000 -2.100000 3.200000
v 0.190000 2.100000 -3.200000
v 0.190000 -2.100000 -3.200000
v 0.190000 2.100000 3.200000
v 0.190000 -2.100000 3.200000
v 0.190000 1.995000 -3.040000
v 0.190000 -1.995000 -3.040000
v 0.190000 1.995000 3.040000
v 0.190000 -1.995000 3.040000
vn -0.0000 1.0000 -0.0000
vn -0.0000 -0.0000 1.0000
vn -1.0000 -0.0000 -0.0000
vn -0.0000 -1.0000 -0.0000
vn 1.0000 -0.0000 -0.0000
vn -0.0000 -0.0000 -1.0000
vt 0.178496 0.679718
vt 0.177650 0.753536
vt 0.201006 0.754382
vt 0.201852 0.680565
vt 0.131477 0.678014
vt 0.130631 0.751832
vt 0.153987 0.752678
vt 0.154834 0.678861
vt 0.154987 0.678866
vt 0.154140 0.752684
vt 0.177497 0.753530
vt 0.178343 0.679713
vt 0.132330 0.603713
vt 0.131483 0.677531
vt 0.154839 0.678377
vt 0.155686 0.604560
vt 0.951733 0.003712
vt 0.951733 0.808016
vt 0.263546 0.808016
vt 0.263546 0.003713
vt 0.155839 0.604565
vt 0.154992 0.678383
vt 0.178349 0.679229
vt 0.179195 0.605412
vt 0.156112 0.567409
vt 0.132756 0.566563
vt 0.132335 0.603230
vt 0.155692 0.604076
vt 0.190103 0.679655
vt 0.190950 0.605838
vt 0.179348 0.605417
vt 0.178502 0.679235
vt 0.179621 0.568261
vt 0.156265 0.567415
vt 0.155844 0.604082
vt 0.179201 0.604928
vt 0.201858 0.680081
vt 0.202705 0.606264
vt 0.191103 0.605843
vt 0.190256 0.679661
vt 0.156751 0.511683
vt 0.133395 0.510837
vt 0.133187 0.528929
vt 0.156544 0.529775
vt 0.206883 0.754595
vt 0.207730 0.680778
vt 0.202005 0.680570
vt 0.201159 0.754388
vt 0.180260 0.512535
vt 0.156904 0.511689
vt 0.156697 0.529781
vt 0.180053 0.530627
vt 0.207735 0.680294
vt 0.208582 0.606477
vt 0.202857 0.606269
vt 0.202011 0.680087
vt 0.180047 0.531111
vt 0.156691 0.530264
vt 0.156270 0.566931
vt 0.179627 0.567778
vt 0.190955 0.605354
vt 0.191802 0.531537
vt 0.180200 0.531116
vt 0.179354 0.604934
vt 0.156538 0.530259
vt 0.133182 0.529412
vt 0.132761 0.566079
vt 0.156118 0.566926
vt 0.202710 0.605780
vt 0.203557 0.531963
vt 0.191955 0.531542
vt 0.191108 0.605360
s 0
usemtl Material
f 9/1/1 5/2/1 7/3/1 11/4/1
f 12/5/2 11/6/2 7/7/2 8/8/2
f 8/9/3 7/10/3 5/11/3 6/12/3
f 6/13/4 10/14/4 12/15/4 8/16/4
f 2/17/5 1/18/5 3/19/5 4/20/5
f 6/21/6 5/22/6 9/23/6 10/24/6
f 11/25/2 12/26/2 16/27/2 15/28/2
f 2/29/1 4/30/1 20/31/1 18/32/1
f 1/33/2 2/34/2 18/35/2 17/36/2
f 3/37/4 1/38/4 17/39/4 19/40/4
f 17/41/5 18/42/5 14/43/5 13/44/5
f 20/45/5 19/46/5 15/47/5 16/48/5
f 19/49/5 17/50/5 13/51/5 15/52/5
f 18/53/5 20/54/5 16/55/5 14/56/5
f 4/57/6 3/58/6 19/59/6 20/60/6
f 10/61/6 9/62/6 13/63/6 14/64/6
f 12/65/4 10/66/4 14/67/4 16/68/4
f 9/69/1 11/70/1 15/71/1 13/72/1
